<?xml version="1.0" encoding="utf-8"?>
<!-- Designed by Vexels.com - 2019 All Rights Reserved - https://vexels.com/terms-and-conditions/  -->
<svg version="1.1" id="Layer_1" xmlns="http://www.w3.org/2000/svg" xmlns:xlink="http://www.w3.org/1999/xlink" x="0px" y="0px"
	 viewBox="0 0 1200 1200" enable-background="new 0 0 1200 1200" xml:space="preserve">
<g>
	<path d="M629.723,689.218c8.874,3.978,22.55,13.184,16.497,23.64c-6.669,11.52-23.667,4.597-32.276,1.005
		c0.474,0.198-2.702,11.639-3.01,12.646c-1.454,4.755-4.389,16.316-10.769,16.59c-1.792,0.083-3.399-1.082-4.659-2.359
		c-3.501-3.549-5.485-8.25-6.624-13.038c-0.235-0.99-2.373-12.721-2.1-12.805c0,0-4.825,1.498-6.214,1.931
		c-2.727,0.85-5.506,1.555-8.346,1.899c-5.097,0.617-11.414,0.008-15.827-2.801c-3.121-1.987-5.418-5.661-4.797-9.308
		c0.416-2.444,2.025-4.501,3.687-6.341c2.192-2.426,4.575-4.68,7.117-6.735c1.265-1.023,6.161-3.469,6.023-5.406
		c-0.12-1.708-2.375-3.981-3.426-5.25c-1.804-2.177-3.56-4.406-4.992-6.85c-1.798-3.069-3.08-6.519-3.141-10.075
		c-0.024-1.394,0.151-2.829,0.821-4.052c1.024-1.87,3.085-2.989,5.179-3.387c4.372-0.831,9.61,0.125,13.689,1.759
		c2.073,0.83,9.922,4.911,9.922,4.911c0.487-3.703,1.226-7.389,2.089-11.02c1.45-6.095,3.25-14.075,7.883-18.619
		c1.37-1.344,3.238-2.292,5.153-2.16c1.63,0.112,3.125,0.987,4.331,2.089c2.155,1.97,3.536,4.671,4.364,7.472
		c1.001,3.384,1.25,6.959,1.881,10.411c0.347,1.897,0.649,3.804,0.938,5.711c0.098,0.648,1.191,5.439,0.792,5.732
		c5.807-4.261,13.041-6.541,20.242-6.379c2.979,0.067,6.353,0.799,7.844,3.38c0.768,1.329,0.888,2.941,0.746,4.469
		c-0.766,8.264-7.826,16.186-13.248,22.003C629.41,688.368,629.462,689.101,629.723,689.218z"/>
	<path d="M78.124,470.061c5.692-5.421,5.641-15.032,12.091-20.678c10.685-9.353,14.724,6.658,15.406,15.251
		c0.414,5.212-0.381,10.352-2.109,15.274c-1.095,3.119-6.734,10.27-6.232,13.011c1.351,7.369,24.487-1.1,28.597-2.915
		c9.199-4.063,17.127-10.629,26.478-14.424c9.654-3.917,19.729-4.333,29.908-2.613c18.35,3.099,38.126,11.914,50.096,26.719
		c1.495,1.848,5.011,5.478,2.258,7.941c-2.889,2.584-6.879-3.758-8.607-5.418c-6.895-6.623-14.569-12.241-23.282-16.239
		c-18.187-8.345-37.869-9.889-55.468,0.198c-8.908,5.105-17.733,10.621-27.627,13.627c-4.94,1.501-9.975,2.347-15.132,2.552
		c-5.126,0.203-8.652-0.879-11.893,3.576c-5.068,6.967-6.195,14.026-13.807,19.289c-4.864,3.363-16.981,9.208-22.942,5.635
		c-9.42-5.645,0.222-20.12,5.403-24.954c2.594-2.42,11.123-5.999,12.061-8.816c1.09-3.272-4.753-5.265-6.841-6.852
		c-6.762-5.139-17.655-16.936-16.381-26.441C51.816,451.004,73.389,467.351,78.124,470.061
		C81.126,467.202,73.002,467.13,78.124,470.061z"/>
	<path d="M1121.017,470.546c5.463-3.253,18.018-13.805,25.134-11.719c9.594,2.812-1.348,19.373-4.784,23.579
		c-2.917,3.57-6.412,6.487-10.068,9.265c-4.031,3.063-6.171,3.243-2.46,7.243c6.372,6.869,15.007,8.868,17.87,19.047
		c6.708,23.841-25.429,9.825-32.87,0.491c-4.563-5.724-4.324-14.41-12.409-16.075c-5.034-1.037-10.385-0.085-15.519-1.093
		c-5.55-1.09-10.858-3.114-15.959-5.518c-8.729-4.113-16.583-10.414-25.488-13.987c-10.045-4.031-20.935-3.458-31.312-1.138
		c-9.189,2.055-18.075,5.517-25.994,10.648c-4.045,2.621-7.741,5.67-11.231,8.99c-2.48,2.359-8.091,10.959-11.414,6.521
		c-3.315-4.426,11.351-15.306,14.017-17.362c7.966-6.143,17.049-10.713,26.671-13.619c9.315-2.813,19.734-4.877,29.48-3.74
		c11.088,1.293,20.027,7.148,29.436,12.648c9.49,5.548,20.411,10.612,31.695,10.583c8.596-0.022,6.387-2.924,3.222-8.902
		c-2.609-4.929-4.297-10.208-4.724-15.783c-0.449-5.876,0.528-25.86,10.166-24.345
		C1114.115,447.795,1118.256,463.241,1121.017,470.546C1126.188,467.466,1119.526,466.602,1121.017,470.546z"/>
	<path d="M1054.095,536.278c0.638-26.149-24.429-35.438-45.866-26.339c-23.032,9.776-33.647,31.225-48.987,49.342
		c-6.891,8.139-14.895,15.266-23.43,21.635c-3.855,2.876-9.59,8.454-14.569,9.007c-8.93,0.991-3.894-4.598,0.345-7.28
		c8.937-5.656,17.362-11.819,24.844-19.333c9.634-9.675,16.615-21.231,24.889-31.996c14.146-18.403,35.058-34.005,59.451-31.602
		c20.867,2.056,32.579,21.826,30.278,41.721c-2.298,19.878-18.504,35.158-38.108,37.723c-11.397,1.491-19.447-4.394-21.661-15.755
		c-1.9-9.747,1.614-23.062,12.911-24.939c4.075-0.677,11.187,0.735,13.16,4.989c3.748,8.08-4.594,3.496-7.813,2.575
		c-11.707-3.347-14.265,13.857-9.46,21.292c6.679,10.335,23.18,2.808,30.555-2.971
		C1049.18,557.65,1054.566,547.234,1054.095,536.278C1054.21,531.534,1054.879,554.527,1054.095,536.278z"/>
	<path d="M177.633,499.561c25.175,0.114,44.648,22.576,57.751,41.379c7.027,10.084,14.479,19.556,23.711,27.742
		c3.516,3.117,25.967,16.132,24.741,19.836c-2.586,7.813-27.161-13.259-30.191-15.916c-10.25-8.988-18.068-19.8-26.059-30.752
		c-13.042-17.874-33.383-38.83-57.903-35.583c-20.342,2.693-28.377,24.97-21.98,42.741c4.178,11.608,33.544,36.459,42.607,17.055
		c2.227-4.767,2.456-11.795-0.413-16.325c-3.959-6.251-7.413-3.655-12.734-1.78c-5.065,1.785-7.72-1.466-3.61-5.733
		c3.312-3.438,8.647-4.629,13.168-3.444c19.8,5.191,14.594,40.383-5.683,40.756c-21.497,0.396-40.643-18.262-42.318-39.135
		C136.752,515.891,153.23,498.87,177.633,499.561C184.053,499.59,157.116,498.98,177.633,499.561z"/>
	<path d="M697.463,691.491c-2.634,0.09-33.955-2.388-27.047-9.212c2.306-2.278,13.768,1.667,16.949,1.992
		c7.201,0.734,14.502,0.732,21.684-0.216c22.433-2.96,58.433-20.212,59.85-46.798c0.26-4.881-1.531-9.475-5.897-11.945
		c-5.295-2.995-12.002-1.168-9.958,5.56c0.967,3.184,5.422,7.588-1.78,7.229c-5.609-0.279-7.615-6.643-6.558-11.244
		c2.798-12.182,17.416-12.654,25.254-5.292c9.122,8.569,6.308,22.545,0.65,32.284C756.965,677.337,724.449,693.584,697.463,691.491
		C689.713,691.756,703.566,691.965,697.463,691.491z"/>
	<path d="M502.449,691.564c-23.362-0.828-46.18-8.104-62.943-24.971c-8.777-8.831-17.062-20.599-15.311-33.743
		c1.318-9.899,11.812-19.438,22.253-15.683c8.253,2.969,13.275,23.167,1.095,21.044c-7.861-1.371,1.09-7.039-0.13-11.132
		c-1.66-5.571-9.452-3.17-12.39-0.583c-10.205,8.985,0.162,25.135,7.016,32.645c9.229,10.113,21.137,17.455,34.153,21.647
		c15.024,4.838,30.642,4.748,46.067,2.142c4.82-0.814,12.285-0.094,4.907,4.943C521.593,691.68,508.903,691.984,502.449,691.564
		C474.331,690.568,509.103,691.997,502.449,691.564z"/>
	<path d="M852.425,627.032c12.271,0.7,26.555,6.753,24.913,21.332c-1.156,10.267-14.002,26.493-24.656,15.803
		c-2.356-2.364-6.588-12.265-0.723-12.949c5.012-0.584,4.163,9.909,10.8,8.238c6.137-1.545,9.154-12.61,6.585-17.687
		c-2.731-5.397-10.042-7.508-15.589-7.842c-14.973-0.902-30.903,7.516-43.125,15.239c-5.958,3.764-11.614,7.995-16.996,12.541
		c-1.937,1.636-11.787,13.721-13.854,6.958c-1.405-4.599,11.972-13.731,14.991-16.193c5.157-4.205,10.584-8.088,16.302-11.495
		C824.098,633.216,837.48,629.055,852.425,627.032C857.334,627.313,848.348,627.584,852.425,627.032z"/>
	<path d="M346.426,627.336c14.654-0.034,28.39,5.643,40.89,12.897c6.729,3.906,13.093,8.42,19.108,13.35
		c3.404,2.789,11.666,7.792,12.833,12.384c2.449,9.632-7.242,0.903-9.733-1.293c-5.414-4.773-11.003-9.294-17.005-13.314
		c-12.718-8.519-28.862-17.492-44.618-17.445c-12.249,0.036-25.267,10.251-14.778,22.356c1.54,1.777,3.989,3.907,6.572,3.573
		c4.367-0.564,2.735-4.846,5.042-7.028c6.112-5.782,6.428,5.134,4.195,8.932c-8.548,14.539-24.463-1.024-26.154-12.002
		C320.559,635.343,333.227,627.182,346.426,627.336C354.931,627.316,343.462,627.301,346.426,627.336z"/>
	<path d="M307.104,541.277c6.187-0.057,13.856,0.989,17.382,6.772c2.62,4.296,2.091,10.55-2.14,13.734
		c-4.031,3.034-10.983,2.181-8.145-3.8c0.662-1.395,3.354-1.565,3.869-3.433c1.01-3.659-2.167-4.842-5.095-5.777
		c-12.036-3.843-18.402,5.824-14.321,16.495c4.825,12.614,16.882,22.468,28.237,28.971c6.962,3.988,14.46,6.802,21.635,10.351
		c4.317,2.136,10.141,8.403,0.902,6.815c-12.322-2.118-26.38-10.897-36.197-18.367c-10.536-8.018-21.504-19.426-23.105-33.205
		C288.813,548.537,296.405,541.96,307.104,541.277C312.457,541.228,306.899,541.29,307.104,541.277z"/>
	<path d="M892.567,541.25c14.034-0.234,20.095,12.413,15.727,24.602c-4.442,12.394-14.337,22.281-24.994,29.6
		c-5.728,3.934-11.91,7.337-18.236,10.2c-3.802,1.721-14.08,7.867-17.891,6.005c-5.24-2.561,1.488-5.911,3.937-6.97
		c6.212-2.687,12.403-5.335,18.368-8.558c11.338-6.125,22.367-14.366,29.052-25.619c2.778-4.677,6.194-11.455,3.513-16.919
		c-2.7-5.501-10.644-6.9-15.893-4.694c-1.683,0.708-4.209,1.54-4.591,3.707c-0.77,4.365,3.643,2.971,4.651,5.882
		c2.434,7.027-7.36,5.39-10.312,1.895C866.113,548.795,883.759,541.254,892.567,541.25
		C898.669,541.148,887.307,541.252,892.567,541.25z"/>
	<path d="M117.068,534.418c-0.547,9.598-3.751,19.959-12.973,24.575c-10.357,5.185-15.105-2.511-14.507-12.342
		c0.501-8.236,4.881-16.649,11.813-21.264c2.463-1.64,6.944-4.038,10.063-3.467C117.262,522.979,116.434,529.627,117.068,534.418
		C116.721,540.496,116.686,531.532,117.068,534.418z"/>
	<path d="M1109.626,550.136c-1.11,9.348-5.437,13.729-14.807,8.378c-8.366-4.777-12.27-15.237-12.105-24.473
		c0.203-11.352,5.45-15.026,15.651-8.999C1107.204,530.265,1109.818,540.485,1109.626,550.136
		C1109.523,551.007,1109.76,543.377,1109.626,550.136z"/>
	<path d="M496.411,631.005c-1.284-24.288,36.628-18.903,32.426,3.888c-1.274,6.911-15.998,10.983-14.892,3.615
		c0.512-3.409,6.401-2.233,7.542-5.854c1.127-3.574-2.934-8.99-5.855-10.36c-10.609-4.974-14.131,8.977-11.717,16.46
		c1.478,4.583,4.6,8.66,8.079,11.936c3.792,3.571,9.071,4.509,12.719,7.602c4.236,3.591,0.528,5.474-3.555,5.088
		c-4.252-0.403-8.903-3.765-12.061-6.44C501.623,650.608,496.398,640.928,496.411,631.005
		C496.208,627.163,496.392,645.378,496.411,631.005z"/>
	<path d="M680.856,642.492c-19.645,0.581-5.798-38.128,14.641-25.766c18.805,11.374,2.002,38.605-12.545,45.104
		c-1.898,0.848-8.888,3.824-10.013,0.039c-1.191-4.006,6.992-5.508,9.361-6.975c8.019-4.966,15.069-13.629,14.366-23.515
		c-0.619-8.711-10.296-13.922-16.141-5.75c-2.681,3.749-2.921,6.901,0.294,9.782c1.567,1.405,5.519,0.611,4.865,4.098
		C685.255,641.795,682.721,642.157,680.856,642.492C674.159,642.69,681.528,642.371,680.856,642.492z"/>
	<path d="M502.721,737.214c0.59-8.034,3.626-15.713,9.576-21.275c2.552-2.385,21.052-12.14,18.021-2.646
		c-0.601,1.881-7.829,3.174-9.837,4.448c-3.386,2.149-6.132,4.929-8.045,8.467c-3.543,6.552-5.192,16.258,3.194,19.479
		c3.376,1.297,8.654,1.322,10.999-2.047c3.034-4.36-2.115-5.997-1.715-9.838c0.839-8.049,11.496,0.43,10.441,7.101
		C532.37,759.767,502.192,755.656,502.721,737.214C503.621,724.948,502.628,740.43,502.721,737.214z"/>
	<path d="M696.775,734.698c-0.228,15.063-18.239,26.967-29.395,12.678c-2.154-2.758-3.985-7.079-3.054-10.655
		c0.732-2.81,4.871-7.584,8.389-6.308c5.973,2.168-0.671,5.977-1.064,8.83c-0.578,4.193,4.409,6.96,7.83,7.252
		c8.559,0.731,12.038-6.872,10.298-14.144c-1.895-7.925-7.565-13.973-15.071-16.853c-2.848-1.093-7.797-1.837-4.544-5.512
		c3.156-3.566,10.554,0.895,13.344,2.813C690.854,717.85,696.456,725.532,696.775,734.698
		C696.596,746.539,696.445,725.218,696.775,734.698z"/>
	<path d="M941.685,529.143c0.409,5.138-3.972,20.329-10.727,20.747c-6.636,0.411-7.844-16.461-7.516-20.94
		c0.395-5.395,4-19.398,10.754-20.008C941.496,508.282,941.566,524.641,941.685,529.143
		C942.296,536.813,941.505,522.358,941.685,529.143z"/>
	<path d="M276.737,530.651c-0.345,5.088-1.926,21.806-9.745,18.135c-7.261-3.41-8.953-15.751-8.646-22.469
		c0.209-4.578,0.603-19.131,8.023-17.196C272.988,510.848,276.737,524.94,276.737,530.651
		C276.286,537.307,276.737,523.484,276.737,530.651z"/>
	<path d="M403.794,618.761c-1.098,9.049-7.307,7.314-12.447,1.893c-5.602-5.908-9.327-14.189-10.001-22.322
		c-0.83-10.028,7.117-8.541,12.656-2.703C399.881,601.824,402.706,610.454,403.794,618.761
		C403.633,620.087,402.654,610.057,403.794,618.761z"/>
	<path d="M818.59,596.831c-0.628,8.152-3.635,15.885-8.837,22.205c-4.811,5.845-14.392,10.135-13.796-1.082
		c0.41-7.711,4.516-16.756,9.743-22.34C810.123,590.889,818.59,587.248,818.59,596.831
		C817.785,607.285,818.59,596.239,818.59,596.831z"/>
	<path d="M909.46,630.31c-6.654-0.041-12.872-2.378-17.386-7.326c-6.695-7.338-3.369-11.989,6.042-12.262
		c7.361-0.213,14.719,3.007,19.341,8.839C923.113,626.696,916.514,630.176,909.46,630.31
		C900.159,630.252,913.669,630.23,909.46,630.31z"/>
	<path d="M301.132,610.712c6.369,0.602,13.766,1.82,8.84,9.701c-3.952,6.323-11.836,9.806-19.055,9.905
		c-5.968,0.082-13.65-2.3-9.717-9.22C284.984,614.441,293.796,610.535,301.132,610.712
		C301.962,610.79,291.872,610.489,301.132,610.712z"/>
</g>
</svg>
